<mxfile host="app.diagrams.net" agent="Mozilla/5.0 (Windows NT 10.0; Win64; x64) AppleWebKit/537.36 (KHTML, like Gecko) Chrome/134.0.0.0 Safari/537.36" version="26.1.0">
  <diagram name="Trang-1" id="utgLKFID1bFqqN5a2JY1">
    <mxGraphModel dx="1050" dy="569" grid="1" gridSize="10" guides="1" tooltips="1" connect="1" arrows="1" fold="1" page="1" pageScale="1" pageWidth="827" pageHeight="1169" math="0" shadow="0">
      <root>
        <mxCell id="0" />
        <mxCell id="1" parent="0" />
        <mxCell id="jbV-BbQ0Udj7QRYP76uf-1" value="&lt;font style=&quot;font-size: 16px;&quot;&gt;gold.dim_customers&lt;/font&gt;" style="shape=table;startSize=40;container=1;collapsible=1;childLayout=tableLayout;fixedRows=1;rowLines=0;fontStyle=1;align=center;resizeLast=1;html=1;fillColor=#fff2cc;strokeColor=#d6b656;rounded=1;" parent="1" vertex="1">
          <mxGeometry x="120" y="160" width="200" height="430" as="geometry">
            <mxRectangle x="300" y="220" width="70" height="40" as="alternateBounds" />
          </mxGeometry>
        </mxCell>
        <mxCell id="jbV-BbQ0Udj7QRYP76uf-2" value="" style="shape=tableRow;horizontal=0;startSize=0;swimlaneHead=0;swimlaneBody=0;fillColor=none;collapsible=0;dropTarget=0;points=[[0,0.5],[1,0.5]];portConstraint=eastwest;top=0;left=0;right=0;bottom=1;fontSize=16;" parent="jbV-BbQ0Udj7QRYP76uf-1" vertex="1">
          <mxGeometry y="40" width="200" height="39" as="geometry" />
        </mxCell>
        <mxCell id="jbV-BbQ0Udj7QRYP76uf-3" value="PK" style="shape=partialRectangle;connectable=0;fillColor=none;top=0;left=0;bottom=0;right=0;fontStyle=1;overflow=hidden;whiteSpace=wrap;html=1;fontSize=16;" parent="jbV-BbQ0Udj7QRYP76uf-2" vertex="1">
          <mxGeometry width="40" height="39" as="geometry">
            <mxRectangle width="40" height="39" as="alternateBounds" />
          </mxGeometry>
        </mxCell>
        <mxCell id="jbV-BbQ0Udj7QRYP76uf-4" value="customer_key" style="shape=partialRectangle;connectable=0;fillColor=none;top=0;left=0;bottom=0;right=0;align=left;spacingLeft=6;fontStyle=5;overflow=hidden;whiteSpace=wrap;html=1;fontSize=16;" parent="jbV-BbQ0Udj7QRYP76uf-2" vertex="1">
          <mxGeometry x="40" width="160" height="39" as="geometry">
            <mxRectangle width="160" height="39" as="alternateBounds" />
          </mxGeometry>
        </mxCell>
        <mxCell id="jbV-BbQ0Udj7QRYP76uf-5" value="" style="shape=tableRow;horizontal=0;startSize=0;swimlaneHead=0;swimlaneBody=0;fillColor=none;collapsible=0;dropTarget=0;points=[[0,0.5],[1,0.5]];portConstraint=eastwest;top=0;left=0;right=0;bottom=0;fontSize=16;" parent="jbV-BbQ0Udj7QRYP76uf-1" vertex="1">
          <mxGeometry y="79" width="200" height="39" as="geometry" />
        </mxCell>
        <mxCell id="jbV-BbQ0Udj7QRYP76uf-6" value="" style="shape=partialRectangle;connectable=0;fillColor=none;top=0;left=0;bottom=0;right=0;editable=1;overflow=hidden;whiteSpace=wrap;html=1;fontSize=16;" parent="jbV-BbQ0Udj7QRYP76uf-5" vertex="1">
          <mxGeometry width="40" height="39" as="geometry">
            <mxRectangle width="40" height="39" as="alternateBounds" />
          </mxGeometry>
        </mxCell>
        <mxCell id="jbV-BbQ0Udj7QRYP76uf-7" value="customer_id" style="shape=partialRectangle;connectable=0;fillColor=none;top=0;left=0;bottom=0;right=0;align=left;spacingLeft=6;overflow=hidden;whiteSpace=wrap;html=1;fontSize=16;" parent="jbV-BbQ0Udj7QRYP76uf-5" vertex="1">
          <mxGeometry x="40" width="160" height="39" as="geometry">
            <mxRectangle width="160" height="39" as="alternateBounds" />
          </mxGeometry>
        </mxCell>
        <mxCell id="jbV-BbQ0Udj7QRYP76uf-8" value="" style="shape=tableRow;horizontal=0;startSize=0;swimlaneHead=0;swimlaneBody=0;fillColor=none;collapsible=0;dropTarget=0;points=[[0,0.5],[1,0.5]];portConstraint=eastwest;top=0;left=0;right=0;bottom=0;fontSize=16;" parent="jbV-BbQ0Udj7QRYP76uf-1" vertex="1">
          <mxGeometry y="118" width="200" height="39" as="geometry" />
        </mxCell>
        <mxCell id="jbV-BbQ0Udj7QRYP76uf-9" value="" style="shape=partialRectangle;connectable=0;fillColor=none;top=0;left=0;bottom=0;right=0;editable=1;overflow=hidden;whiteSpace=wrap;html=1;fontSize=16;" parent="jbV-BbQ0Udj7QRYP76uf-8" vertex="1">
          <mxGeometry width="40" height="39" as="geometry">
            <mxRectangle width="40" height="39" as="alternateBounds" />
          </mxGeometry>
        </mxCell>
        <mxCell id="jbV-BbQ0Udj7QRYP76uf-10" value="customer_number" style="shape=partialRectangle;connectable=0;fillColor=none;top=0;left=0;bottom=0;right=0;align=left;spacingLeft=6;overflow=hidden;whiteSpace=wrap;html=1;fontSize=16;" parent="jbV-BbQ0Udj7QRYP76uf-8" vertex="1">
          <mxGeometry x="40" width="160" height="39" as="geometry">
            <mxRectangle width="160" height="39" as="alternateBounds" />
          </mxGeometry>
        </mxCell>
        <mxCell id="jbV-BbQ0Udj7QRYP76uf-11" value="" style="shape=tableRow;horizontal=0;startSize=0;swimlaneHead=0;swimlaneBody=0;fillColor=none;collapsible=0;dropTarget=0;points=[[0,0.5],[1,0.5]];portConstraint=eastwest;top=0;left=0;right=0;bottom=0;fontSize=16;" parent="jbV-BbQ0Udj7QRYP76uf-1" vertex="1">
          <mxGeometry y="157" width="200" height="39" as="geometry" />
        </mxCell>
        <mxCell id="jbV-BbQ0Udj7QRYP76uf-12" value="" style="shape=partialRectangle;connectable=0;fillColor=none;top=0;left=0;bottom=0;right=0;editable=1;overflow=hidden;whiteSpace=wrap;html=1;fontSize=16;" parent="jbV-BbQ0Udj7QRYP76uf-11" vertex="1">
          <mxGeometry width="40" height="39" as="geometry">
            <mxRectangle width="40" height="39" as="alternateBounds" />
          </mxGeometry>
        </mxCell>
        <mxCell id="jbV-BbQ0Udj7QRYP76uf-13" value="first_name" style="shape=partialRectangle;connectable=0;fillColor=none;top=0;left=0;bottom=0;right=0;align=left;spacingLeft=6;overflow=hidden;whiteSpace=wrap;html=1;fontSize=16;" parent="jbV-BbQ0Udj7QRYP76uf-11" vertex="1">
          <mxGeometry x="40" width="160" height="39" as="geometry">
            <mxRectangle width="160" height="39" as="alternateBounds" />
          </mxGeometry>
        </mxCell>
        <mxCell id="jbV-BbQ0Udj7QRYP76uf-14" style="shape=tableRow;horizontal=0;startSize=0;swimlaneHead=0;swimlaneBody=0;fillColor=none;collapsible=0;dropTarget=0;points=[[0,0.5],[1,0.5]];portConstraint=eastwest;top=0;left=0;right=0;bottom=0;fontSize=16;" parent="jbV-BbQ0Udj7QRYP76uf-1" vertex="1">
          <mxGeometry y="196" width="200" height="39" as="geometry" />
        </mxCell>
        <mxCell id="jbV-BbQ0Udj7QRYP76uf-15" style="shape=partialRectangle;connectable=0;fillColor=none;top=0;left=0;bottom=0;right=0;editable=1;overflow=hidden;whiteSpace=wrap;html=1;fontSize=16;" parent="jbV-BbQ0Udj7QRYP76uf-14" vertex="1">
          <mxGeometry width="40" height="39" as="geometry">
            <mxRectangle width="40" height="39" as="alternateBounds" />
          </mxGeometry>
        </mxCell>
        <mxCell id="jbV-BbQ0Udj7QRYP76uf-16" value="last_name" style="shape=partialRectangle;connectable=0;fillColor=none;top=0;left=0;bottom=0;right=0;align=left;spacingLeft=6;overflow=hidden;whiteSpace=wrap;html=1;fontSize=16;" parent="jbV-BbQ0Udj7QRYP76uf-14" vertex="1">
          <mxGeometry x="40" width="160" height="39" as="geometry">
            <mxRectangle width="160" height="39" as="alternateBounds" />
          </mxGeometry>
        </mxCell>
        <mxCell id="jbV-BbQ0Udj7QRYP76uf-17" style="shape=tableRow;horizontal=0;startSize=0;swimlaneHead=0;swimlaneBody=0;fillColor=none;collapsible=0;dropTarget=0;points=[[0,0.5],[1,0.5]];portConstraint=eastwest;top=0;left=0;right=0;bottom=0;fontSize=16;" parent="jbV-BbQ0Udj7QRYP76uf-1" vertex="1">
          <mxGeometry y="235" width="200" height="39" as="geometry" />
        </mxCell>
        <mxCell id="jbV-BbQ0Udj7QRYP76uf-18" style="shape=partialRectangle;connectable=0;fillColor=none;top=0;left=0;bottom=0;right=0;editable=1;overflow=hidden;whiteSpace=wrap;html=1;fontSize=16;" parent="jbV-BbQ0Udj7QRYP76uf-17" vertex="1">
          <mxGeometry width="40" height="39" as="geometry">
            <mxRectangle width="40" height="39" as="alternateBounds" />
          </mxGeometry>
        </mxCell>
        <mxCell id="jbV-BbQ0Udj7QRYP76uf-19" value="country" style="shape=partialRectangle;connectable=0;fillColor=none;top=0;left=0;bottom=0;right=0;align=left;spacingLeft=6;overflow=hidden;whiteSpace=wrap;html=1;fontSize=16;" parent="jbV-BbQ0Udj7QRYP76uf-17" vertex="1">
          <mxGeometry x="40" width="160" height="39" as="geometry">
            <mxRectangle width="160" height="39" as="alternateBounds" />
          </mxGeometry>
        </mxCell>
        <mxCell id="jbV-BbQ0Udj7QRYP76uf-20" style="shape=tableRow;horizontal=0;startSize=0;swimlaneHead=0;swimlaneBody=0;fillColor=none;collapsible=0;dropTarget=0;points=[[0,0.5],[1,0.5]];portConstraint=eastwest;top=0;left=0;right=0;bottom=0;fontSize=16;" parent="jbV-BbQ0Udj7QRYP76uf-1" vertex="1">
          <mxGeometry y="274" width="200" height="39" as="geometry" />
        </mxCell>
        <mxCell id="jbV-BbQ0Udj7QRYP76uf-21" style="shape=partialRectangle;connectable=0;fillColor=none;top=0;left=0;bottom=0;right=0;editable=1;overflow=hidden;whiteSpace=wrap;html=1;fontSize=16;" parent="jbV-BbQ0Udj7QRYP76uf-20" vertex="1">
          <mxGeometry width="40" height="39" as="geometry">
            <mxRectangle width="40" height="39" as="alternateBounds" />
          </mxGeometry>
        </mxCell>
        <mxCell id="jbV-BbQ0Udj7QRYP76uf-22" value="marital_status" style="shape=partialRectangle;connectable=0;fillColor=none;top=0;left=0;bottom=0;right=0;align=left;spacingLeft=6;overflow=hidden;whiteSpace=wrap;html=1;fontSize=16;" parent="jbV-BbQ0Udj7QRYP76uf-20" vertex="1">
          <mxGeometry x="40" width="160" height="39" as="geometry">
            <mxRectangle width="160" height="39" as="alternateBounds" />
          </mxGeometry>
        </mxCell>
        <mxCell id="jbV-BbQ0Udj7QRYP76uf-23" style="shape=tableRow;horizontal=0;startSize=0;swimlaneHead=0;swimlaneBody=0;fillColor=none;collapsible=0;dropTarget=0;points=[[0,0.5],[1,0.5]];portConstraint=eastwest;top=0;left=0;right=0;bottom=0;fontSize=16;" parent="jbV-BbQ0Udj7QRYP76uf-1" vertex="1">
          <mxGeometry y="313" width="200" height="39" as="geometry" />
        </mxCell>
        <mxCell id="jbV-BbQ0Udj7QRYP76uf-24" style="shape=partialRectangle;connectable=0;fillColor=none;top=0;left=0;bottom=0;right=0;editable=1;overflow=hidden;whiteSpace=wrap;html=1;fontSize=16;" parent="jbV-BbQ0Udj7QRYP76uf-23" vertex="1">
          <mxGeometry width="40" height="39" as="geometry">
            <mxRectangle width="40" height="39" as="alternateBounds" />
          </mxGeometry>
        </mxCell>
        <mxCell id="jbV-BbQ0Udj7QRYP76uf-25" value="gender" style="shape=partialRectangle;connectable=0;fillColor=none;top=0;left=0;bottom=0;right=0;align=left;spacingLeft=6;overflow=hidden;whiteSpace=wrap;html=1;fontSize=16;" parent="jbV-BbQ0Udj7QRYP76uf-23" vertex="1">
          <mxGeometry x="40" width="160" height="39" as="geometry">
            <mxRectangle width="160" height="39" as="alternateBounds" />
          </mxGeometry>
        </mxCell>
        <mxCell id="jbV-BbQ0Udj7QRYP76uf-26" style="shape=tableRow;horizontal=0;startSize=0;swimlaneHead=0;swimlaneBody=0;fillColor=none;collapsible=0;dropTarget=0;points=[[0,0.5],[1,0.5]];portConstraint=eastwest;top=0;left=0;right=0;bottom=0;fontSize=16;" parent="jbV-BbQ0Udj7QRYP76uf-1" vertex="1">
          <mxGeometry y="352" width="200" height="39" as="geometry" />
        </mxCell>
        <mxCell id="jbV-BbQ0Udj7QRYP76uf-27" style="shape=partialRectangle;connectable=0;fillColor=none;top=0;left=0;bottom=0;right=0;editable=1;overflow=hidden;whiteSpace=wrap;html=1;fontSize=16;" parent="jbV-BbQ0Udj7QRYP76uf-26" vertex="1">
          <mxGeometry width="40" height="39" as="geometry">
            <mxRectangle width="40" height="39" as="alternateBounds" />
          </mxGeometry>
        </mxCell>
        <mxCell id="jbV-BbQ0Udj7QRYP76uf-28" value="birthday" style="shape=partialRectangle;connectable=0;fillColor=none;top=0;left=0;bottom=0;right=0;align=left;spacingLeft=6;overflow=hidden;whiteSpace=wrap;html=1;fontSize=16;" parent="jbV-BbQ0Udj7QRYP76uf-26" vertex="1">
          <mxGeometry x="40" width="160" height="39" as="geometry">
            <mxRectangle width="160" height="39" as="alternateBounds" />
          </mxGeometry>
        </mxCell>
        <mxCell id="jbV-BbQ0Udj7QRYP76uf-29" style="shape=tableRow;horizontal=0;startSize=0;swimlaneHead=0;swimlaneBody=0;fillColor=none;collapsible=0;dropTarget=0;points=[[0,0.5],[1,0.5]];portConstraint=eastwest;top=0;left=0;right=0;bottom=0;fontSize=16;" parent="jbV-BbQ0Udj7QRYP76uf-1" vertex="1">
          <mxGeometry y="391" width="200" height="39" as="geometry" />
        </mxCell>
        <mxCell id="jbV-BbQ0Udj7QRYP76uf-30" style="shape=partialRectangle;connectable=0;fillColor=none;top=0;left=0;bottom=0;right=0;editable=1;overflow=hidden;whiteSpace=wrap;html=1;fontSize=16;" parent="jbV-BbQ0Udj7QRYP76uf-29" vertex="1">
          <mxGeometry width="40" height="39" as="geometry">
            <mxRectangle width="40" height="39" as="alternateBounds" />
          </mxGeometry>
        </mxCell>
        <mxCell id="jbV-BbQ0Udj7QRYP76uf-31" value="create_date" style="shape=partialRectangle;connectable=0;fillColor=none;top=0;left=0;bottom=0;right=0;align=left;spacingLeft=6;overflow=hidden;whiteSpace=wrap;html=1;fontSize=16;" parent="jbV-BbQ0Udj7QRYP76uf-29" vertex="1">
          <mxGeometry x="40" width="160" height="39" as="geometry">
            <mxRectangle width="160" height="39" as="alternateBounds" />
          </mxGeometry>
        </mxCell>
        <mxCell id="jbV-BbQ0Udj7QRYP76uf-33" value="&lt;font style=&quot;font-size: 16px;&quot;&gt;gold.dim_products&lt;/font&gt;" style="shape=table;startSize=40;container=1;collapsible=1;childLayout=tableLayout;fixedRows=1;rowLines=0;fontStyle=1;align=center;resizeLast=1;html=1;fillColor=#fff2cc;strokeColor=#d6b656;rounded=1;" parent="1" vertex="1">
          <mxGeometry x="760" y="150" width="200" height="469" as="geometry">
            <mxRectangle x="300" y="220" width="70" height="40" as="alternateBounds" />
          </mxGeometry>
        </mxCell>
        <mxCell id="jbV-BbQ0Udj7QRYP76uf-34" value="" style="shape=tableRow;horizontal=0;startSize=0;swimlaneHead=0;swimlaneBody=0;fillColor=none;collapsible=0;dropTarget=0;points=[[0,0.5],[1,0.5]];portConstraint=eastwest;top=0;left=0;right=0;bottom=1;fontSize=16;" parent="jbV-BbQ0Udj7QRYP76uf-33" vertex="1">
          <mxGeometry y="40" width="200" height="39" as="geometry" />
        </mxCell>
        <mxCell id="jbV-BbQ0Udj7QRYP76uf-35" value="PK" style="shape=partialRectangle;connectable=0;fillColor=none;top=0;left=0;bottom=0;right=0;fontStyle=1;overflow=hidden;whiteSpace=wrap;html=1;fontSize=16;" parent="jbV-BbQ0Udj7QRYP76uf-34" vertex="1">
          <mxGeometry width="40" height="39" as="geometry">
            <mxRectangle width="40" height="39" as="alternateBounds" />
          </mxGeometry>
        </mxCell>
        <mxCell id="jbV-BbQ0Udj7QRYP76uf-36" value="product_key" style="shape=partialRectangle;connectable=0;fillColor=none;top=0;left=0;bottom=0;right=0;align=left;spacingLeft=6;fontStyle=5;overflow=hidden;whiteSpace=wrap;html=1;fontSize=16;" parent="jbV-BbQ0Udj7QRYP76uf-34" vertex="1">
          <mxGeometry x="40" width="160" height="39" as="geometry">
            <mxRectangle width="160" height="39" as="alternateBounds" />
          </mxGeometry>
        </mxCell>
        <mxCell id="jbV-BbQ0Udj7QRYP76uf-37" value="" style="shape=tableRow;horizontal=0;startSize=0;swimlaneHead=0;swimlaneBody=0;fillColor=none;collapsible=0;dropTarget=0;points=[[0,0.5],[1,0.5]];portConstraint=eastwest;top=0;left=0;right=0;bottom=0;fontSize=16;" parent="jbV-BbQ0Udj7QRYP76uf-33" vertex="1">
          <mxGeometry y="79" width="200" height="39" as="geometry" />
        </mxCell>
        <mxCell id="jbV-BbQ0Udj7QRYP76uf-38" value="" style="shape=partialRectangle;connectable=0;fillColor=none;top=0;left=0;bottom=0;right=0;editable=1;overflow=hidden;whiteSpace=wrap;html=1;fontSize=16;" parent="jbV-BbQ0Udj7QRYP76uf-37" vertex="1">
          <mxGeometry width="40" height="39" as="geometry">
            <mxRectangle width="40" height="39" as="alternateBounds" />
          </mxGeometry>
        </mxCell>
        <mxCell id="jbV-BbQ0Udj7QRYP76uf-39" value="product_id" style="shape=partialRectangle;connectable=0;fillColor=none;top=0;left=0;bottom=0;right=0;align=left;spacingLeft=6;overflow=hidden;whiteSpace=wrap;html=1;fontSize=16;" parent="jbV-BbQ0Udj7QRYP76uf-37" vertex="1">
          <mxGeometry x="40" width="160" height="39" as="geometry">
            <mxRectangle width="160" height="39" as="alternateBounds" />
          </mxGeometry>
        </mxCell>
        <mxCell id="jbV-BbQ0Udj7QRYP76uf-40" value="" style="shape=tableRow;horizontal=0;startSize=0;swimlaneHead=0;swimlaneBody=0;fillColor=none;collapsible=0;dropTarget=0;points=[[0,0.5],[1,0.5]];portConstraint=eastwest;top=0;left=0;right=0;bottom=0;fontSize=16;" parent="jbV-BbQ0Udj7QRYP76uf-33" vertex="1">
          <mxGeometry y="118" width="200" height="39" as="geometry" />
        </mxCell>
        <mxCell id="jbV-BbQ0Udj7QRYP76uf-41" value="" style="shape=partialRectangle;connectable=0;fillColor=none;top=0;left=0;bottom=0;right=0;editable=1;overflow=hidden;whiteSpace=wrap;html=1;fontSize=16;" parent="jbV-BbQ0Udj7QRYP76uf-40" vertex="1">
          <mxGeometry width="40" height="39" as="geometry">
            <mxRectangle width="40" height="39" as="alternateBounds" />
          </mxGeometry>
        </mxCell>
        <mxCell id="jbV-BbQ0Udj7QRYP76uf-42" value="product_number" style="shape=partialRectangle;connectable=0;fillColor=none;top=0;left=0;bottom=0;right=0;align=left;spacingLeft=6;overflow=hidden;whiteSpace=wrap;html=1;fontSize=16;" parent="jbV-BbQ0Udj7QRYP76uf-40" vertex="1">
          <mxGeometry x="40" width="160" height="39" as="geometry">
            <mxRectangle width="160" height="39" as="alternateBounds" />
          </mxGeometry>
        </mxCell>
        <mxCell id="jbV-BbQ0Udj7QRYP76uf-43" value="" style="shape=tableRow;horizontal=0;startSize=0;swimlaneHead=0;swimlaneBody=0;fillColor=none;collapsible=0;dropTarget=0;points=[[0,0.5],[1,0.5]];portConstraint=eastwest;top=0;left=0;right=0;bottom=0;fontSize=16;" parent="jbV-BbQ0Udj7QRYP76uf-33" vertex="1">
          <mxGeometry y="157" width="200" height="39" as="geometry" />
        </mxCell>
        <mxCell id="jbV-BbQ0Udj7QRYP76uf-44" value="" style="shape=partialRectangle;connectable=0;fillColor=none;top=0;left=0;bottom=0;right=0;editable=1;overflow=hidden;whiteSpace=wrap;html=1;fontSize=16;" parent="jbV-BbQ0Udj7QRYP76uf-43" vertex="1">
          <mxGeometry width="40" height="39" as="geometry">
            <mxRectangle width="40" height="39" as="alternateBounds" />
          </mxGeometry>
        </mxCell>
        <mxCell id="jbV-BbQ0Udj7QRYP76uf-45" value="product_name" style="shape=partialRectangle;connectable=0;fillColor=none;top=0;left=0;bottom=0;right=0;align=left;spacingLeft=6;overflow=hidden;whiteSpace=wrap;html=1;fontSize=16;" parent="jbV-BbQ0Udj7QRYP76uf-43" vertex="1">
          <mxGeometry x="40" width="160" height="39" as="geometry">
            <mxRectangle width="160" height="39" as="alternateBounds" />
          </mxGeometry>
        </mxCell>
        <mxCell id="jbV-BbQ0Udj7QRYP76uf-46" style="shape=tableRow;horizontal=0;startSize=0;swimlaneHead=0;swimlaneBody=0;fillColor=none;collapsible=0;dropTarget=0;points=[[0,0.5],[1,0.5]];portConstraint=eastwest;top=0;left=0;right=0;bottom=0;fontSize=16;" parent="jbV-BbQ0Udj7QRYP76uf-33" vertex="1">
          <mxGeometry y="196" width="200" height="39" as="geometry" />
        </mxCell>
        <mxCell id="jbV-BbQ0Udj7QRYP76uf-47" style="shape=partialRectangle;connectable=0;fillColor=none;top=0;left=0;bottom=0;right=0;editable=1;overflow=hidden;whiteSpace=wrap;html=1;fontSize=16;" parent="jbV-BbQ0Udj7QRYP76uf-46" vertex="1">
          <mxGeometry width="40" height="39" as="geometry">
            <mxRectangle width="40" height="39" as="alternateBounds" />
          </mxGeometry>
        </mxCell>
        <mxCell id="jbV-BbQ0Udj7QRYP76uf-48" value="category_id" style="shape=partialRectangle;connectable=0;fillColor=none;top=0;left=0;bottom=0;right=0;align=left;spacingLeft=6;overflow=hidden;whiteSpace=wrap;html=1;fontSize=16;" parent="jbV-BbQ0Udj7QRYP76uf-46" vertex="1">
          <mxGeometry x="40" width="160" height="39" as="geometry">
            <mxRectangle width="160" height="39" as="alternateBounds" />
          </mxGeometry>
        </mxCell>
        <mxCell id="jbV-BbQ0Udj7QRYP76uf-49" style="shape=tableRow;horizontal=0;startSize=0;swimlaneHead=0;swimlaneBody=0;fillColor=none;collapsible=0;dropTarget=0;points=[[0,0.5],[1,0.5]];portConstraint=eastwest;top=0;left=0;right=0;bottom=0;fontSize=16;" parent="jbV-BbQ0Udj7QRYP76uf-33" vertex="1">
          <mxGeometry y="235" width="200" height="39" as="geometry" />
        </mxCell>
        <mxCell id="jbV-BbQ0Udj7QRYP76uf-50" style="shape=partialRectangle;connectable=0;fillColor=none;top=0;left=0;bottom=0;right=0;editable=1;overflow=hidden;whiteSpace=wrap;html=1;fontSize=16;" parent="jbV-BbQ0Udj7QRYP76uf-49" vertex="1">
          <mxGeometry width="40" height="39" as="geometry">
            <mxRectangle width="40" height="39" as="alternateBounds" />
          </mxGeometry>
        </mxCell>
        <mxCell id="jbV-BbQ0Udj7QRYP76uf-51" value="category" style="shape=partialRectangle;connectable=0;fillColor=none;top=0;left=0;bottom=0;right=0;align=left;spacingLeft=6;overflow=hidden;whiteSpace=wrap;html=1;fontSize=16;" parent="jbV-BbQ0Udj7QRYP76uf-49" vertex="1">
          <mxGeometry x="40" width="160" height="39" as="geometry">
            <mxRectangle width="160" height="39" as="alternateBounds" />
          </mxGeometry>
        </mxCell>
        <mxCell id="jbV-BbQ0Udj7QRYP76uf-52" style="shape=tableRow;horizontal=0;startSize=0;swimlaneHead=0;swimlaneBody=0;fillColor=none;collapsible=0;dropTarget=0;points=[[0,0.5],[1,0.5]];portConstraint=eastwest;top=0;left=0;right=0;bottom=0;fontSize=16;" parent="jbV-BbQ0Udj7QRYP76uf-33" vertex="1">
          <mxGeometry y="274" width="200" height="39" as="geometry" />
        </mxCell>
        <mxCell id="jbV-BbQ0Udj7QRYP76uf-53" style="shape=partialRectangle;connectable=0;fillColor=none;top=0;left=0;bottom=0;right=0;editable=1;overflow=hidden;whiteSpace=wrap;html=1;fontSize=16;" parent="jbV-BbQ0Udj7QRYP76uf-52" vertex="1">
          <mxGeometry width="40" height="39" as="geometry">
            <mxRectangle width="40" height="39" as="alternateBounds" />
          </mxGeometry>
        </mxCell>
        <mxCell id="jbV-BbQ0Udj7QRYP76uf-54" value="subcategory" style="shape=partialRectangle;connectable=0;fillColor=none;top=0;left=0;bottom=0;right=0;align=left;spacingLeft=6;overflow=hidden;whiteSpace=wrap;html=1;fontSize=16;" parent="jbV-BbQ0Udj7QRYP76uf-52" vertex="1">
          <mxGeometry x="40" width="160" height="39" as="geometry">
            <mxRectangle width="160" height="39" as="alternateBounds" />
          </mxGeometry>
        </mxCell>
        <mxCell id="jbV-BbQ0Udj7QRYP76uf-55" style="shape=tableRow;horizontal=0;startSize=0;swimlaneHead=0;swimlaneBody=0;fillColor=none;collapsible=0;dropTarget=0;points=[[0,0.5],[1,0.5]];portConstraint=eastwest;top=0;left=0;right=0;bottom=0;fontSize=16;" parent="jbV-BbQ0Udj7QRYP76uf-33" vertex="1">
          <mxGeometry y="313" width="200" height="39" as="geometry" />
        </mxCell>
        <mxCell id="jbV-BbQ0Udj7QRYP76uf-56" style="shape=partialRectangle;connectable=0;fillColor=none;top=0;left=0;bottom=0;right=0;editable=1;overflow=hidden;whiteSpace=wrap;html=1;fontSize=16;" parent="jbV-BbQ0Udj7QRYP76uf-55" vertex="1">
          <mxGeometry width="40" height="39" as="geometry">
            <mxRectangle width="40" height="39" as="alternateBounds" />
          </mxGeometry>
        </mxCell>
        <mxCell id="jbV-BbQ0Udj7QRYP76uf-57" value="maintenance" style="shape=partialRectangle;connectable=0;fillColor=none;top=0;left=0;bottom=0;right=0;align=left;spacingLeft=6;overflow=hidden;whiteSpace=wrap;html=1;fontSize=16;" parent="jbV-BbQ0Udj7QRYP76uf-55" vertex="1">
          <mxGeometry x="40" width="160" height="39" as="geometry">
            <mxRectangle width="160" height="39" as="alternateBounds" />
          </mxGeometry>
        </mxCell>
        <mxCell id="jbV-BbQ0Udj7QRYP76uf-58" style="shape=tableRow;horizontal=0;startSize=0;swimlaneHead=0;swimlaneBody=0;fillColor=none;collapsible=0;dropTarget=0;points=[[0,0.5],[1,0.5]];portConstraint=eastwest;top=0;left=0;right=0;bottom=0;fontSize=16;" parent="jbV-BbQ0Udj7QRYP76uf-33" vertex="1">
          <mxGeometry y="352" width="200" height="39" as="geometry" />
        </mxCell>
        <mxCell id="jbV-BbQ0Udj7QRYP76uf-59" style="shape=partialRectangle;connectable=0;fillColor=none;top=0;left=0;bottom=0;right=0;editable=1;overflow=hidden;whiteSpace=wrap;html=1;fontSize=16;" parent="jbV-BbQ0Udj7QRYP76uf-58" vertex="1">
          <mxGeometry width="40" height="39" as="geometry">
            <mxRectangle width="40" height="39" as="alternateBounds" />
          </mxGeometry>
        </mxCell>
        <mxCell id="jbV-BbQ0Udj7QRYP76uf-60" value="cost" style="shape=partialRectangle;connectable=0;fillColor=none;top=0;left=0;bottom=0;right=0;align=left;spacingLeft=6;overflow=hidden;whiteSpace=wrap;html=1;fontSize=16;" parent="jbV-BbQ0Udj7QRYP76uf-58" vertex="1">
          <mxGeometry x="40" width="160" height="39" as="geometry">
            <mxRectangle width="160" height="39" as="alternateBounds" />
          </mxGeometry>
        </mxCell>
        <mxCell id="jbV-BbQ0Udj7QRYP76uf-61" style="shape=tableRow;horizontal=0;startSize=0;swimlaneHead=0;swimlaneBody=0;fillColor=none;collapsible=0;dropTarget=0;points=[[0,0.5],[1,0.5]];portConstraint=eastwest;top=0;left=0;right=0;bottom=0;fontSize=16;" parent="jbV-BbQ0Udj7QRYP76uf-33" vertex="1">
          <mxGeometry y="391" width="200" height="39" as="geometry" />
        </mxCell>
        <mxCell id="jbV-BbQ0Udj7QRYP76uf-62" style="shape=partialRectangle;connectable=0;fillColor=none;top=0;left=0;bottom=0;right=0;editable=1;overflow=hidden;whiteSpace=wrap;html=1;fontSize=16;" parent="jbV-BbQ0Udj7QRYP76uf-61" vertex="1">
          <mxGeometry width="40" height="39" as="geometry">
            <mxRectangle width="40" height="39" as="alternateBounds" />
          </mxGeometry>
        </mxCell>
        <mxCell id="jbV-BbQ0Udj7QRYP76uf-63" value="product_line" style="shape=partialRectangle;connectable=0;fillColor=none;top=0;left=0;bottom=0;right=0;align=left;spacingLeft=6;overflow=hidden;whiteSpace=wrap;html=1;fontSize=16;" parent="jbV-BbQ0Udj7QRYP76uf-61" vertex="1">
          <mxGeometry x="40" width="160" height="39" as="geometry">
            <mxRectangle width="160" height="39" as="alternateBounds" />
          </mxGeometry>
        </mxCell>
        <mxCell id="jbV-BbQ0Udj7QRYP76uf-64" style="shape=tableRow;horizontal=0;startSize=0;swimlaneHead=0;swimlaneBody=0;fillColor=none;collapsible=0;dropTarget=0;points=[[0,0.5],[1,0.5]];portConstraint=eastwest;top=0;left=0;right=0;bottom=0;fontSize=16;" parent="jbV-BbQ0Udj7QRYP76uf-33" vertex="1">
          <mxGeometry y="430" width="200" height="39" as="geometry" />
        </mxCell>
        <mxCell id="jbV-BbQ0Udj7QRYP76uf-65" style="shape=partialRectangle;connectable=0;fillColor=none;top=0;left=0;bottom=0;right=0;editable=1;overflow=hidden;whiteSpace=wrap;html=1;fontSize=16;" parent="jbV-BbQ0Udj7QRYP76uf-64" vertex="1">
          <mxGeometry width="40" height="39" as="geometry">
            <mxRectangle width="40" height="39" as="alternateBounds" />
          </mxGeometry>
        </mxCell>
        <mxCell id="jbV-BbQ0Udj7QRYP76uf-66" value="start_date" style="shape=partialRectangle;connectable=0;fillColor=none;top=0;left=0;bottom=0;right=0;align=left;spacingLeft=6;overflow=hidden;whiteSpace=wrap;html=1;fontSize=16;" parent="jbV-BbQ0Udj7QRYP76uf-64" vertex="1">
          <mxGeometry x="40" width="160" height="39" as="geometry">
            <mxRectangle width="160" height="39" as="alternateBounds" />
          </mxGeometry>
        </mxCell>
        <mxCell id="jbV-BbQ0Udj7QRYP76uf-67" value="&lt;font style=&quot;font-size: 16px;&quot;&gt;gold.fact_sales&lt;/font&gt;" style="shape=table;startSize=40;container=1;collapsible=1;childLayout=tableLayout;fixedRows=1;rowLines=0;fontStyle=1;align=center;resizeLast=1;html=1;fillColor=#dae8fc;strokeColor=#6c8ebf;rounded=1;" parent="1" vertex="1">
          <mxGeometry x="450" y="160" width="200" height="391" as="geometry">
            <mxRectangle x="300" y="220" width="70" height="40" as="alternateBounds" />
          </mxGeometry>
        </mxCell>
        <mxCell id="jbV-BbQ0Udj7QRYP76uf-71" value="" style="shape=tableRow;horizontal=0;startSize=0;swimlaneHead=0;swimlaneBody=0;fillColor=none;collapsible=0;dropTarget=0;points=[[0,0.5],[1,0.5]];portConstraint=eastwest;top=0;left=0;right=0;bottom=0;fontSize=16;" parent="jbV-BbQ0Udj7QRYP76uf-67" vertex="1">
          <mxGeometry y="40" width="200" height="39" as="geometry" />
        </mxCell>
        <mxCell id="jbV-BbQ0Udj7QRYP76uf-72" value="" style="shape=partialRectangle;connectable=0;fillColor=none;top=0;left=0;bottom=0;right=0;editable=1;overflow=hidden;whiteSpace=wrap;html=1;fontSize=16;" parent="jbV-BbQ0Udj7QRYP76uf-71" vertex="1">
          <mxGeometry width="40" height="39" as="geometry">
            <mxRectangle width="40" height="39" as="alternateBounds" />
          </mxGeometry>
        </mxCell>
        <mxCell id="jbV-BbQ0Udj7QRYP76uf-73" value="order_number" style="shape=partialRectangle;connectable=0;fillColor=none;top=0;left=0;bottom=0;right=0;align=left;spacingLeft=6;overflow=hidden;whiteSpace=wrap;html=1;fontSize=16;" parent="jbV-BbQ0Udj7QRYP76uf-71" vertex="1">
          <mxGeometry x="40" width="160" height="39" as="geometry">
            <mxRectangle width="160" height="39" as="alternateBounds" />
          </mxGeometry>
        </mxCell>
        <mxCell id="jbV-BbQ0Udj7QRYP76uf-74" value="" style="shape=tableRow;horizontal=0;startSize=0;swimlaneHead=0;swimlaneBody=0;fillColor=none;collapsible=0;dropTarget=0;points=[[0,0.5],[1,0.5]];portConstraint=eastwest;top=0;left=0;right=0;bottom=0;fontSize=16;" parent="jbV-BbQ0Udj7QRYP76uf-67" vertex="1">
          <mxGeometry y="79" width="200" height="39" as="geometry" />
        </mxCell>
        <mxCell id="jbV-BbQ0Udj7QRYP76uf-75" value="FK1" style="shape=partialRectangle;connectable=0;fillColor=none;top=0;left=0;bottom=0;right=0;editable=1;overflow=hidden;whiteSpace=wrap;html=1;fontSize=16;" parent="jbV-BbQ0Udj7QRYP76uf-74" vertex="1">
          <mxGeometry width="40" height="39" as="geometry">
            <mxRectangle width="40" height="39" as="alternateBounds" />
          </mxGeometry>
        </mxCell>
        <mxCell id="jbV-BbQ0Udj7QRYP76uf-76" value="product_key" style="shape=partialRectangle;connectable=0;fillColor=none;top=0;left=0;bottom=0;right=0;align=left;spacingLeft=6;overflow=hidden;whiteSpace=wrap;html=1;fontSize=16;" parent="jbV-BbQ0Udj7QRYP76uf-74" vertex="1">
          <mxGeometry x="40" width="160" height="39" as="geometry">
            <mxRectangle width="160" height="39" as="alternateBounds" />
          </mxGeometry>
        </mxCell>
        <mxCell id="jbV-BbQ0Udj7QRYP76uf-77" value="" style="shape=tableRow;horizontal=0;startSize=0;swimlaneHead=0;swimlaneBody=0;fillColor=none;collapsible=0;dropTarget=0;points=[[0,0.5],[1,0.5]];portConstraint=eastwest;top=0;left=0;right=0;bottom=0;fontSize=16;" parent="jbV-BbQ0Udj7QRYP76uf-67" vertex="1">
          <mxGeometry y="118" width="200" height="39" as="geometry" />
        </mxCell>
        <mxCell id="jbV-BbQ0Udj7QRYP76uf-78" value="FK2" style="shape=partialRectangle;connectable=0;fillColor=none;top=0;left=0;bottom=0;right=0;editable=1;overflow=hidden;whiteSpace=wrap;html=1;fontSize=16;" parent="jbV-BbQ0Udj7QRYP76uf-77" vertex="1">
          <mxGeometry width="40" height="39" as="geometry">
            <mxRectangle width="40" height="39" as="alternateBounds" />
          </mxGeometry>
        </mxCell>
        <mxCell id="jbV-BbQ0Udj7QRYP76uf-79" value="customer_key" style="shape=partialRectangle;connectable=0;fillColor=none;top=0;left=0;bottom=0;right=0;align=left;spacingLeft=6;overflow=hidden;whiteSpace=wrap;html=1;fontSize=16;" parent="jbV-BbQ0Udj7QRYP76uf-77" vertex="1">
          <mxGeometry x="40" width="160" height="39" as="geometry">
            <mxRectangle width="160" height="39" as="alternateBounds" />
          </mxGeometry>
        </mxCell>
        <mxCell id="jbV-BbQ0Udj7QRYP76uf-102" style="shape=tableRow;horizontal=0;startSize=0;swimlaneHead=0;swimlaneBody=0;fillColor=none;collapsible=0;dropTarget=0;points=[[0,0.5],[1,0.5]];portConstraint=eastwest;top=0;left=0;right=0;bottom=0;fontSize=16;" parent="jbV-BbQ0Udj7QRYP76uf-67" vertex="1">
          <mxGeometry y="157" width="200" height="39" as="geometry" />
        </mxCell>
        <mxCell id="jbV-BbQ0Udj7QRYP76uf-103" style="shape=partialRectangle;connectable=0;fillColor=none;top=0;left=0;bottom=0;right=0;editable=1;overflow=hidden;whiteSpace=wrap;html=1;fontSize=16;" parent="jbV-BbQ0Udj7QRYP76uf-102" vertex="1">
          <mxGeometry width="40" height="39" as="geometry">
            <mxRectangle width="40" height="39" as="alternateBounds" />
          </mxGeometry>
        </mxCell>
        <mxCell id="jbV-BbQ0Udj7QRYP76uf-104" value="order_date" style="shape=partialRectangle;connectable=0;fillColor=none;top=0;left=0;bottom=0;right=0;align=left;spacingLeft=6;overflow=hidden;whiteSpace=wrap;html=1;fontSize=16;" parent="jbV-BbQ0Udj7QRYP76uf-102" vertex="1">
          <mxGeometry x="40" width="160" height="39" as="geometry">
            <mxRectangle width="160" height="39" as="alternateBounds" />
          </mxGeometry>
        </mxCell>
        <mxCell id="jbV-BbQ0Udj7QRYP76uf-105" style="shape=tableRow;horizontal=0;startSize=0;swimlaneHead=0;swimlaneBody=0;fillColor=none;collapsible=0;dropTarget=0;points=[[0,0.5],[1,0.5]];portConstraint=eastwest;top=0;left=0;right=0;bottom=0;fontSize=16;" parent="jbV-BbQ0Udj7QRYP76uf-67" vertex="1">
          <mxGeometry y="196" width="200" height="39" as="geometry" />
        </mxCell>
        <mxCell id="jbV-BbQ0Udj7QRYP76uf-106" style="shape=partialRectangle;connectable=0;fillColor=none;top=0;left=0;bottom=0;right=0;editable=1;overflow=hidden;whiteSpace=wrap;html=1;fontSize=16;" parent="jbV-BbQ0Udj7QRYP76uf-105" vertex="1">
          <mxGeometry width="40" height="39" as="geometry">
            <mxRectangle width="40" height="39" as="alternateBounds" />
          </mxGeometry>
        </mxCell>
        <mxCell id="jbV-BbQ0Udj7QRYP76uf-107" value="shipping_date" style="shape=partialRectangle;connectable=0;fillColor=none;top=0;left=0;bottom=0;right=0;align=left;spacingLeft=6;overflow=hidden;whiteSpace=wrap;html=1;fontSize=16;" parent="jbV-BbQ0Udj7QRYP76uf-105" vertex="1">
          <mxGeometry x="40" width="160" height="39" as="geometry">
            <mxRectangle width="160" height="39" as="alternateBounds" />
          </mxGeometry>
        </mxCell>
        <mxCell id="jbV-BbQ0Udj7QRYP76uf-108" style="shape=tableRow;horizontal=0;startSize=0;swimlaneHead=0;swimlaneBody=0;fillColor=none;collapsible=0;dropTarget=0;points=[[0,0.5],[1,0.5]];portConstraint=eastwest;top=0;left=0;right=0;bottom=0;fontSize=16;" parent="jbV-BbQ0Udj7QRYP76uf-67" vertex="1">
          <mxGeometry y="235" width="200" height="39" as="geometry" />
        </mxCell>
        <mxCell id="jbV-BbQ0Udj7QRYP76uf-109" style="shape=partialRectangle;connectable=0;fillColor=none;top=0;left=0;bottom=0;right=0;editable=1;overflow=hidden;whiteSpace=wrap;html=1;fontSize=16;" parent="jbV-BbQ0Udj7QRYP76uf-108" vertex="1">
          <mxGeometry width="40" height="39" as="geometry">
            <mxRectangle width="40" height="39" as="alternateBounds" />
          </mxGeometry>
        </mxCell>
        <mxCell id="jbV-BbQ0Udj7QRYP76uf-110" value="due_date" style="shape=partialRectangle;connectable=0;fillColor=none;top=0;left=0;bottom=0;right=0;align=left;spacingLeft=6;overflow=hidden;whiteSpace=wrap;html=1;fontSize=16;" parent="jbV-BbQ0Udj7QRYP76uf-108" vertex="1">
          <mxGeometry x="40" width="160" height="39" as="geometry">
            <mxRectangle width="160" height="39" as="alternateBounds" />
          </mxGeometry>
        </mxCell>
        <mxCell id="jbV-BbQ0Udj7QRYP76uf-111" style="shape=tableRow;horizontal=0;startSize=0;swimlaneHead=0;swimlaneBody=0;fillColor=none;collapsible=0;dropTarget=0;points=[[0,0.5],[1,0.5]];portConstraint=eastwest;top=0;left=0;right=0;bottom=0;fontSize=16;" parent="jbV-BbQ0Udj7QRYP76uf-67" vertex="1">
          <mxGeometry y="274" width="200" height="39" as="geometry" />
        </mxCell>
        <mxCell id="jbV-BbQ0Udj7QRYP76uf-112" style="shape=partialRectangle;connectable=0;fillColor=none;top=0;left=0;bottom=0;right=0;editable=1;overflow=hidden;whiteSpace=wrap;html=1;fontSize=16;" parent="jbV-BbQ0Udj7QRYP76uf-111" vertex="1">
          <mxGeometry width="40" height="39" as="geometry">
            <mxRectangle width="40" height="39" as="alternateBounds" />
          </mxGeometry>
        </mxCell>
        <mxCell id="jbV-BbQ0Udj7QRYP76uf-113" value="sales_amount" style="shape=partialRectangle;connectable=0;fillColor=none;top=0;left=0;bottom=0;right=0;align=left;spacingLeft=6;overflow=hidden;whiteSpace=wrap;html=1;fontSize=16;" parent="jbV-BbQ0Udj7QRYP76uf-111" vertex="1">
          <mxGeometry x="40" width="160" height="39" as="geometry">
            <mxRectangle width="160" height="39" as="alternateBounds" />
          </mxGeometry>
        </mxCell>
        <mxCell id="jbV-BbQ0Udj7QRYP76uf-114" style="shape=tableRow;horizontal=0;startSize=0;swimlaneHead=0;swimlaneBody=0;fillColor=none;collapsible=0;dropTarget=0;points=[[0,0.5],[1,0.5]];portConstraint=eastwest;top=0;left=0;right=0;bottom=0;fontSize=16;" parent="jbV-BbQ0Udj7QRYP76uf-67" vertex="1">
          <mxGeometry y="313" width="200" height="39" as="geometry" />
        </mxCell>
        <mxCell id="jbV-BbQ0Udj7QRYP76uf-115" style="shape=partialRectangle;connectable=0;fillColor=none;top=0;left=0;bottom=0;right=0;editable=1;overflow=hidden;whiteSpace=wrap;html=1;fontSize=16;" parent="jbV-BbQ0Udj7QRYP76uf-114" vertex="1">
          <mxGeometry width="40" height="39" as="geometry">
            <mxRectangle width="40" height="39" as="alternateBounds" />
          </mxGeometry>
        </mxCell>
        <mxCell id="jbV-BbQ0Udj7QRYP76uf-116" value="quantity" style="shape=partialRectangle;connectable=0;fillColor=none;top=0;left=0;bottom=0;right=0;align=left;spacingLeft=6;overflow=hidden;whiteSpace=wrap;html=1;fontSize=16;" parent="jbV-BbQ0Udj7QRYP76uf-114" vertex="1">
          <mxGeometry x="40" width="160" height="39" as="geometry">
            <mxRectangle width="160" height="39" as="alternateBounds" />
          </mxGeometry>
        </mxCell>
        <mxCell id="jbV-BbQ0Udj7QRYP76uf-117" style="shape=tableRow;horizontal=0;startSize=0;swimlaneHead=0;swimlaneBody=0;fillColor=none;collapsible=0;dropTarget=0;points=[[0,0.5],[1,0.5]];portConstraint=eastwest;top=0;left=0;right=0;bottom=0;fontSize=16;" parent="jbV-BbQ0Udj7QRYP76uf-67" vertex="1">
          <mxGeometry y="352" width="200" height="39" as="geometry" />
        </mxCell>
        <mxCell id="jbV-BbQ0Udj7QRYP76uf-118" style="shape=partialRectangle;connectable=0;fillColor=none;top=0;left=0;bottom=0;right=0;editable=1;overflow=hidden;whiteSpace=wrap;html=1;fontSize=16;" parent="jbV-BbQ0Udj7QRYP76uf-117" vertex="1">
          <mxGeometry width="40" height="39" as="geometry">
            <mxRectangle width="40" height="39" as="alternateBounds" />
          </mxGeometry>
        </mxCell>
        <mxCell id="jbV-BbQ0Udj7QRYP76uf-119" value="price" style="shape=partialRectangle;connectable=0;fillColor=none;top=0;left=0;bottom=0;right=0;align=left;spacingLeft=6;overflow=hidden;whiteSpace=wrap;html=1;fontSize=16;" parent="jbV-BbQ0Udj7QRYP76uf-117" vertex="1">
          <mxGeometry x="40" width="160" height="39" as="geometry">
            <mxRectangle width="160" height="39" as="alternateBounds" />
          </mxGeometry>
        </mxCell>
        <mxCell id="jbV-BbQ0Udj7QRYP76uf-120" value="" style="edgeStyle=entityRelationEdgeStyle;fontSize=12;html=1;endArrow=ERzeroToMany;startArrow=ERmandOne;rounded=0;exitX=1;exitY=0.5;exitDx=0;exitDy=0;entryX=0;entryY=0.5;entryDx=0;entryDy=0;" parent="1" source="jbV-BbQ0Udj7QRYP76uf-2" target="jbV-BbQ0Udj7QRYP76uf-77" edge="1">
          <mxGeometry width="100" height="100" relative="1" as="geometry">
            <mxPoint x="410" y="470" as="sourcePoint" />
            <mxPoint x="510" y="370" as="targetPoint" />
          </mxGeometry>
        </mxCell>
        <mxCell id="jbV-BbQ0Udj7QRYP76uf-121" value="" style="edgeStyle=entityRelationEdgeStyle;fontSize=12;html=1;endArrow=ERzeroToMany;startArrow=ERmandOne;rounded=0;exitX=0;exitY=0.5;exitDx=0;exitDy=0;" parent="1" source="jbV-BbQ0Udj7QRYP76uf-34" target="jbV-BbQ0Udj7QRYP76uf-74" edge="1">
          <mxGeometry width="100" height="100" relative="1" as="geometry">
            <mxPoint x="570" y="470" as="sourcePoint" />
            <mxPoint x="670" y="370" as="targetPoint" />
            <Array as="points">
              <mxPoint x="670" y="380" />
            </Array>
          </mxGeometry>
        </mxCell>
        <mxCell id="jbV-BbQ0Udj7QRYP76uf-122" value="&lt;h1 style=&quot;margin-top: 0px;&quot;&gt;&lt;font style=&quot;font-size: 18px;&quot;&gt;Sales Calculation&lt;/font&gt;&lt;/h1&gt;&lt;p&gt;&lt;font style=&quot;font-size: 16px;&quot;&gt;Sales = quantity * price&lt;/font&gt;&lt;/p&gt;" style="text;html=1;whiteSpace=wrap;overflow=hidden;rounded=0;fontStyle=4" parent="1" vertex="1">
          <mxGeometry x="540" y="590" width="180" height="90" as="geometry" />
        </mxCell>
        <mxCell id="jbV-BbQ0Udj7QRYP76uf-123" value="" style="endArrow=none;dashed=1;html=1;dashPattern=1 3;strokeWidth=2;rounded=0;exitX=0.011;exitY=0.118;exitDx=0;exitDy=0;exitPerimeter=0;entryX=0.736;entryY=0.99;entryDx=0;entryDy=0;entryPerimeter=0;" parent="1" source="jbV-BbQ0Udj7QRYP76uf-122" target="jbV-BbQ0Udj7QRYP76uf-111" edge="1">
          <mxGeometry width="50" height="50" relative="1" as="geometry">
            <mxPoint x="480" y="500" as="sourcePoint" />
            <mxPoint x="530" y="450" as="targetPoint" />
          </mxGeometry>
        </mxCell>
      </root>
    </mxGraphModel>
  </diagram>
</mxfile>
